<?xml version="1.0" standalone="no"?>
<!DOCTYPE svg PUBLIC "-//W3C//DTD SVG 20010904//EN"
 "http://www.w3.org/TR/2001/REC-SVG-20010904/DTD/svg10.dtd">
<svg version="1.0" xmlns="http://www.w3.org/2000/svg"
 width="300.000000pt" height="330.000000pt" viewBox="0 0 300.000000 330.000000"
 preserveAspectRatio="xMidYMid meet">
<metadata>
Created by potrace 1.10, written by Peter Selinger 2001-2011
</metadata>
<g transform="translate(0.000000,330.000000) scale(0.100000,-0.100000)"
fill="#000000" stroke="none">
<path d="M1437 3245 c-55 -45 -195 -206 -300 -345 -31 -41 -60 -79 -64 -85
-40 -50 -233 -334 -233 -342 0 -3 -17 -30 -39 -61 -36 -54 -60 -92 -143 -222
-19 -30 -38 -70 -41 -89 -6 -31 7 -102 23 -126 11 -15 285 -600 336 -713 10
-23 21 -42 26 -42 4 0 8 40 8 89 0 82 -6 117 -58 341 -17 72 -32 186 -32 243
0 103 37 252 86 349 30 60 129 185 188 238 22 19 44 40 50 45 6 6 58 46 115
90 87 67 109 80 141 80 32 0 54 -13 141 -80 57 -44 109 -84 115 -90 6 -5 28
-26 50 -45 59 -53 158 -178 188 -238 49 -97 86 -246 86 -349 0 -57 -15 -171
-32 -243 -52 -224 -58 -259 -58 -341 0 -49 4 -89 8 -89 5 0 16 19 26 42 51
113 325 698 336 713 16 24 29 95 23 126 -3 19 -22 59 -41 89 -83 130 -107 168
-143 222 -22 31 -39 58 -39 61 0 8 -193 292 -233 342 -4 6 -33 44 -64 85 -149
198 -328 390 -363 390 -4 0 -33 -20 -63 -45z m110 -37 c75 -66 236 -261 375
-454 150 -209 407 -611 418 -655 9 -33 6 -47 -29 -126 -54 -120 -259 -555
-266 -561 -10 -11 -4 31 20 133 60 254 66 385 25 546 -56 217 -201 399 -475
594 -106 75 -135 72 -272 -31 -145 -110 -224 -184 -293 -275 -76 -101 -102
-152 -134 -262 -48 -166 -43 -323 19 -575 32 -134 31 -150 -7 -77 -55 107
-264 559 -271 587 -10 40 6 73 154 305 152 240 316 472 438 623 94 116 231
260 249 260 6 0 28 -15 49 -32z"/>
<path d="M1440 2357 c-3 -3 -17 -8 -30 -11 -70 -13 -168 -98 -203 -176 -28
-59 -29 -205 -3 -264 57 -127 221 -215 349 -186 82 19 129 44 179 98 67 71 81
109 82 217 0 71 -4 100 -21 135 -34 75 -127 158 -198 177 -31 8 -149 16 -155
10z m172 -65 c24 -10 58 -31 76 -47 70 -59 108 -189 83 -282 -42 -154 -219
-245 -369 -189 -210 77 -245 367 -60 494 80 54 181 64 270 24z"/>
<path d="M502 1962 c-11 -15 -75 -111 -143 -212 -67 -102 -174 -263 -237 -357
-106 -160 -114 -175 -109 -209 10 -61 62 -159 119 -222 29 -32 105 -117 168
-188 63 -71 143 -158 176 -194 165 -174 234 -346 202 -501 -6 -32 -9 -62 -5
-65 30 -31 215 263 256 406 7 25 19 60 27 78 8 18 12 37 9 42 -2 4 2 30 10 56
17 57 20 251 5 335 -5 30 -11 66 -14 81 -11 67 -67 200 -177 425 -66 133 -119
245 -119 247 0 3 -20 47 -44 98 -24 51 -56 119 -70 151 -14 31 -28 57 -30 57
-3 0 -14 -13 -24 -28z m66 -149 c22 -49 57 -124 77 -168 20 -44 77 -160 127
-258 49 -98 106 -227 126 -285 35 -104 36 -112 40 -282 3 -112 0 -200 -8 -245
-24 -136 -104 -328 -169 -406 l-29 -34 -6 50 c-22 171 -91 287 -311 522 -66
70 -143 155 -171 188 -29 33 -71 83 -95 110 -50 59 -103 167 -97 198 6 30 450
697 464 697 6 0 29 -39 52 -87z"/>
<path d="M2445 1934 c-15 -32 -47 -101 -71 -152 -24 -51 -44 -95 -44 -98 0 -2
-53 -114 -119 -247 -110 -225 -166 -358 -177 -425 -3 -15 -9 -51 -14 -81 -15
-84 -12 -278 5 -335 8 -26 12 -52 10 -56 -3 -5 1 -24 9 -42 8 -18 20 -53 27
-78 41 -143 226 -437 256 -406 4 3 1 33 -5 65 -32 155 37 327 202 501 33 36
113 123 176 194 63 71 139 156 168 188 57 63 109 161 119 222 5 34 -3 50 -109
209 -63 94 -174 262 -247 372 -73 110 -139 206 -146 214 -12 12 -18 5 -40 -45z
m206 -269 c247 -373 299 -455 299 -473 0 -67 -114 -217 -389 -513 -69 -74
-148 -167 -174 -205 -56 -82 -107 -201 -108 -253 -1 -20 -4 -47 -8 -60 -6 -24
-7 -24 -39 17 -63 80 -143 279 -171 428 -15 82 -14 241 3 344 20 123 62 231
189 488 61 125 136 281 166 345 32 70 59 117 67 115 6 -2 81 -106 165 -233z"/>
</g>
</svg>
